<?xml version="1.0" encoding="UTF-8"?>
<svg version="1.1" xmlns="http://www.w3.org/2000/svg" width="641" height="389">
<path d="M0 0 C19.07345016 -1.13682816 39.58742147 2.77684998 54.375 15.5625 C65.15264429 25.39285548 70.85685588 38.07754444 74.4375 52 C77.50117927 63.81527524 82.72151059 77.04747261 93.6640625 83.59375 C96.0811193 84.81929993 98.50073685 85.95403071 101 87 C101 87.66 101 88.32 101 89 C81.32531998 89.94187298 61.96279429 85.59500423 47 72 C37.5267427 62.00571355 32.31841208 51.71260138 29.54663086 38.38208008 C28.21751513 32.24487606 26.01207192 27.05852837 23.171875 21.44140625 C22 19 22 19 22 17 C21.34 17 20.68 17 20 17 C19.566875 16.2575 19.13375 15.515 18.6875 14.75 C16.83393179 11.72937032 14.76386905 10.16627574 12 8 C12 7.34 12 6.68 12 6 C11.05125 5.71125 10.1025 5.4225 9.125 5.125 C6 4 6 4 4 2 C2.68252676 1.30251417 1.35085807 0.63040043 0 0 Z " fill="#E50E30" transform="translate(109,0)"/>
<path d="M0 0 C0 19.14 0 38.28 0 58 C-6.6 58 -13.2 58 -20 58 C-23.41388647 54.23295286 -24.22772504 52.50633329 -26 48 C-27.61112526 45.2285819 -29.37162107 42.55803962 -31.125 39.875 C-31.96658645 38.56350363 -32.80266193 37.24845226 -33.6328125 35.9296875 C-33.99262207 35.36491699 -34.35243164 34.80014648 -34.72314453 34.21826172 C-36.6355338 30.89589673 -38.28562887 27.42874225 -40 24 C-40.33 35.22 -40.66 46.44 -41 58 C-45.62 58 -50.24 58 -55 58 C-55 39.19 -55 20.38 -55 1 C-48.4 1 -41.8 1 -35 1 C-28.98074028 8.139122 -28.98074028 8.139122 -27.6796875 11.25 C-26.25991293 14.46189594 -24.62128744 17.39583592 -22.75 20.375 C-22.33234375 21.08398438 -21.9146875 21.79296875 -21.484375 22.5234375 C-19.37298622 26.04612299 -17.17669446 29.51728886 -15 33 C-14.67 22.44 -14.34 11.88 -14 1 C-1 0 -1 0 0 0 Z " fill="#04247A" transform="translate(428,189)"/>
<path d="M0 0 C0 0.66 0 1.32 0 2 C0.66 2 1.32 2 2 2 C8.09383795 9.426865 8.87600415 18.66044803 8 28 C6.07896526 36.93211045 1.53066779 43.82448314 -6 49 C-14.43473763 53.96882726 -23.95146201 54.25506559 -33.45703125 52.5625 C-39.81912763 50.55473783 -44.7487081 45.77659334 -48.875 40.6875 C-52.82618486 31.2485584 -53.21091562 20.70490228 -50 11 C-48.125 7.75 -48.125 7.75 -46 5 C-45.46375 4.154375 -44.9275 3.30875 -44.375 2.4375 C-32.77290553 -9.46991275 -13.06070204 -8.7071347 0 0 Z M-33.3125 12.5 C-36.63353281 17.42004861 -36.38256321 22.26155184 -36 28 C-35.12899451 31.4614054 -35.12899451 31.4614054 -34 34 C-33.34 34 -32.68 34 -32 34 C-31.67 34.99 -31.34 35.98 -31 37 C-26.20603715 40.14702156 -20.59969315 39.51993863 -15.1875 38.4375 C-11.14192449 35.77897895 -9.50594354 31.51783062 -8 27 C-7.56399426 21.44092684 -8.3108762 16.87006672 -11 12 C-14.33452342 8.82813626 -16.64507858 7.10422472 -21.25 6.75 C-26.60818361 7.10721224 -29.66761791 8.55958693 -33.3125 12.5 Z " fill="#05257C" transform="translate(295,195)"/>
<path d="M0 0 C13.53 0 27.06 0 41 0 C41 4.29 41 8.58 41 13 C32.42 13 23.84 13 15 13 C15 18.28 15 23.56 15 29 C22.92 29 30.84 29 39 29 C39 33.29 39 37.58 39 42 C31.08 42 23.16 42 15 42 C15 48.27 15 54.54 15 61 C23.58 61 32.16 61 41 61 C41 65.29 41 69.58 41 74 C27.47 74 13.94 74 0 74 C0 49.58 0 25.16 0 0 Z " fill="#09297E" transform="translate(316,173)"/>
<path d="M0 0 C32 0 32 0 41.5625 6.375 C46.28237853 11.4579461 47.72042935 16.43547424 48.25 23.1875 C47.83803412 29.4699796 46.689675 35.00705 42.5625 39.875 C41.716875 40.57625 40.87125 41.2775 40 42 C39.4225 42.70125 38.845 43.4025 38.25 44.125 C31.12683316 50.06097237 23.11290921 49 14 49 C14 57.58 14 66.16 14 75 C9.38 75 4.76 75 0 75 C0 50.25 0 25.5 0 0 Z M14 13 C14 20.59 14 28.18 14 36 C19.23700314 37.04740063 21.14613985 36.90687363 26 35 C28.85554017 32.56272118 28.85554017 32.56272118 31 30 C31.33 29.67 31.66 29.34 32 29 C32.56601461 24.50899885 32.59239688 21.03120939 30.3125 17.0625 C24.86238674 12.20158817 21.81495234 13 14 13 Z " fill="#06267D" transform="translate(128,172)"/>
<path d="M0 0 C3.99031427 4.22839985 3.43272998 8.31288518 3.27734375 13.86328125 C2.94069601 17.67071975 2.39595881 19.98572923 0 23 C-2.74532962 25.0145127 -5.49008191 27 -9 27 C-8.6390625 27.55429688 -8.278125 28.10859375 -7.90625 28.6796875 C-7.4421875 29.40414062 -6.978125 30.12859375 -6.5 30.875 C-6.0359375 31.59429687 -5.571875 32.31359375 -5.09375 33.0546875 C-4 35 -4 35 -4 37 C-3.34 37 -2.68 37 -2 37 C-0.59765625 38.7578125 -0.59765625 38.7578125 0.9375 41.125 C1.44152344 41.89070313 1.94554687 42.65640625 2.46484375 43.4453125 C4.13726633 46.22842794 5.58234097 49.08004558 7 52 C-6.06404637 53.79414676 -6.06404637 53.79414676 -12 52 C-16.11854473 48.69635449 -18.21425109 43.75552049 -20.13476562 38.94458008 C-21.21174716 36.52410661 -22.63696673 34.27172211 -24 32 C-24.33 38.6 -24.66 45.2 -25 52 C-29.95 52 -34.9 52 -40 52 C-40 33.19 -40 14.38 -40 -5 C-9.38554217 -7.78313253 -9.38554217 -7.78313253 0 0 Z M-25 6 C-25 10.29 -25 14.58 -25 19 C-18.64877037 19.71196041 -18.64877037 19.71196041 -13.375 16.8125 C-11.82021068 14.12846761 -11.82021068 14.12846761 -11.9375 11.375 C-13.39386635 8.11959286 -14.71694596 7.35604406 -18 6 C-21.70893908 5.74900133 -21.70893908 5.74900133 -25 6 Z " fill="#07277C" transform="translate(540,195)"/>
<path d="M0 0 C32.7037037 0 32.7037037 0 39 5 C43.32252876 9.92287997 44.41858994 12.85991912 44.34375 19.32421875 C43.78356115 23.68477965 41.95980303 26.79418736 39 30 C34.21875 33 34.21875 33 31 33 C31.56714722 33.81621826 31.56714722 33.81621826 32.14575195 34.64892578 C33.8720344 37.13818114 35.59230248 39.63153622 37.3125 42.125 C37.90740234 42.9809375 38.50230469 43.836875 39.11523438 44.71875 C42.08459381 49.03178605 44.83317593 53.22829357 47 58 C33.80524976 59.42360942 33.80524976 59.42360942 28 58 C24.18887085 54.55478429 22.86421452 50.69825161 21 46 C19.35 43.36 17.7 40.72 16 38 C15.67 44.6 15.34 51.2 15 58 C10.38 58 5.76 58 1 58 C0.505 29.29 0.505 29.29 0 0 Z M15 12 C15 16.29 15 20.58 15 25 C21.13528933 25.56830251 21.13528933 25.56830251 26.5625 23.3125 C28.28087645 20.54815528 28.57368682 19.19625513 28 16 C26.12139167 13.4951889 25.03898126 13.01299375 22 12 C19.66700175 11.96045766 17.33291811 11.95598268 15 12 Z " fill="#08287D" transform="translate(188,189)"/>
<path d="M0 0 C-0.65361324 4.46635712 -1.73361205 8.67060054 -3 13 C-4.0621875 12.83242187 -5.124375 12.66484375 -6.21875 12.4921875 C-16.72822285 10.85085861 -16.72822285 10.85085861 -27 13 C-28.423125 13.3403125 -28.423125 13.3403125 -29.875 13.6875 C-32.2527833 14.89119535 -32.2527833 14.89119535 -33.3125 17.75 C-34.66450733 23.67608823 -34.15063766 29.96612478 -34 36 C-33.34 36.33 -32.68 36.66 -32 37 C-30.66666667 38.33333333 -29.33333333 39.66666667 -28 41 C-24.14854957 42.92572521 -19.19956748 42.04883218 -15 42 C-14.67 36.39 -14.34 30.78 -14 25 C-9.05 25 -4.1 25 1 25 C1 34.24 1 43.48 1 53 C-14.21585353 57.68180109 -14.21585353 57.68180109 -20.6875 57.5 C-21.40736084 57.48718994 -22.12722168 57.47437988 -22.86889648 57.46118164 C-32.07704323 57.11208214 -38.7037312 54.14449603 -45.375 47.86328125 C-50.72633773 41.72725218 -51.30307715 33.73540582 -51.21875 25.9140625 C-50.6883141 18.84789856 -48.50186529 12.48664832 -44 7 C-43.01 6.67 -42.02 6.34 -41 6 C-40.67 5.01 -40.34 4.02 -40 3 C-29.19618812 -5.31963822 -12.38109956 -3.22296313 0 0 Z " fill="#0A297C" transform="translate(606,191)"/>
<path d="M0 0 C2.92614383 2.49387258 5.5778043 5.14295672 8.25 7.90625 C15.66099023 15.51810872 23.84582869 21.88494728 34.796875 22.44921875 C36.44820836 22.46573208 38.10001574 22.41249934 39.75 22.34375 C34.81270895 28.62757498 26.01578943 30.71160583 18.44140625 32.02734375 C3.66036728 33.76502758 -9.62477733 31.13135835 -21.5 21.96875 C-23.65258608 19.91400874 -24.97367922 18.38160325 -26.5625 15.96875 C-32.0680013 7.89518739 -41.04095458 2.65604825 -50.484375 0.66015625 C-53.40182829 0.16364131 -56.31499814 -0.27882167 -59.25 -0.65625 C-56.85430822 -5.44763356 -47.84528206 -6.77474902 -42.984375 -8.42578125 C-27.3942898 -12.69157228 -12.68322117 -9.65654339 0 0 Z " fill="#E40F30" transform="translate(89.25,84.65625)"/>
<path d="M0 0 C1.39010821 4.17032463 0.04881284 5.66784778 -1.875 9.5625 C-5.28067586 16.3290402 -9.59791225 21.67119639 -15 27 C-15.47953125 27.52078125 -15.9590625 28.0415625 -16.453125 28.578125 C-18.47413259 30.43581884 -20.61359339 31.70627183 -23 33.0625 C-23.86625 33.56910156 -24.7325 34.07570312 -25.625 34.59765625 C-34.49068498 38.28143045 -43.19442049 38.15394529 -52.625 37.5 C-62.42277121 36.82551575 -70.89844178 36.48004175 -79.375 42.0625 C-81.99635245 43.76429865 -84.02034893 45.00678298 -87 46 C-83.42421709 32.7319634 -74.5736444 21.3730022 -63 14 C-62.36964844 13.59652344 -61.73929688 13.19304687 -61.08984375 12.77734375 C-52.38758899 8.09925304 -41.46617806 8.8862548 -31.83984375 9.08984375 C-20.87390793 9.31213315 -11.28840913 9.49263013 -2.3125 2.25 C-1.1678125 1.13625 -1.1678125 1.13625 0 0 Z " fill="#E40F2F" transform="translate(87,151)"/>
<path d="M0 0 C11.88 0.33 23.76 0.66 36 1 C36 4.96 36 8.92 36 13 C29.07 13 22.14 13 15 13 C15 16.3 15 19.6 15 23 C21.6 23 28.2 23 35 23 C35 26.63 35 30.26 35 34 C28.4 34 21.8 34 15 34 C15 37.96 15 41.92 15 46 C21.93 46 28.86 46 36 46 C36 49.96 36 53.92 36 58 C24.12 58 12.24 58 0 58 C0 38.86 0 19.72 0 0 Z " fill="#05267D" transform="translate(447,189)"/>
<path d="M0 0 C0.66 0 1.32 0 2 0 C4.35827742 10.90703308 3.7913145 23.23711467 -1.734375 33.09375 C-7.61977015 41.57966858 -14.24557853 46.61619875 -24 50 C-24.99 50 -25.98 50 -27 50 C-27 50.66 -27 51.32 -27 52 C-28.0725 52.721875 -29.145 53.44375 -30.25 54.1875 C-35.63796981 57.87744296 -37.79423117 62.93413571 -40 69 C-42.40150597 65.39774104 -42.34458307 62.72941014 -42.3125 58.5625 C-42.30976074 57.85254883 -42.30702148 57.14259766 -42.30419922 56.41113281 C-42.15062288 48.5557911 -40.74660513 40.97194346 -37 34 C-36.34 34 -35.68 34 -35 34 C-34.75894531 33.41863281 -34.51789062 32.83726562 -34.26953125 32.23828125 C-29.9855355 24.6852672 -20.43537621 20.38169914 -12.98046875 16.640625 C-6.33403385 12.98203698 -2.50161332 8.88024328 -0.25 1.5625 C-0.1675 1.046875 -0.085 0.53125 0 0 Z " fill="#E50E2F" transform="translate(73,218)"/>
<path d="M0 0 C3.18146666 1.46175495 3.97566332 2.95827997 5.75 6 C8.83245863 14.32956517 7.24876769 21.34315224 3.75 29.1875 C1.8827265 33.24772878 -0.10233392 37.23489603 -2.1875 41.1875 C-5.66351178 47.89979861 -7.63956804 55.59320376 -9 63 C-9.66 63 -10.32 63 -11 63 C-19.67502341 52.27036578 -22.05674197 40.98884012 -21.27832031 27.4140625 C-20.79497179 23.22165006 -19.63983452 19.30773968 -18.3125 15.3125 C-18.06878662 14.57104736 -17.82507324 13.82959473 -17.57397461 13.06567383 C-14.35315256 4.15171574 -10.07903106 -1.06200526 0 0 Z " fill="#EF8006" transform="translate(96,291)"/>
<path d="M0 0 C6.59152045 3.55942104 10.23152308 8.1097724 12.41796875 15.171875 C13.26661569 19.29550174 13.41147436 23.41332269 13.58447266 27.61328125 C13.8940459 34.14024423 15.05935899 40.38164869 16.37890625 46.76953125 C17 50 17 50 17 53 C17.66 53 18.32 53 19 53 C18.67 53.99 18.34 54.98 18 56 C11.10565787 53.35961365 3.88532746 49.6892421 -1 44 C-1 43.34 -1 42.68 -1 42 C-1.66 42 -2.32 42 -3 42 C-6.40568241 36.19359065 -8.66437316 30.37038017 -10.3125 23.875 C-10.48362305 23.21886719 -10.65474609 22.56273437 -10.83105469 21.88671875 C-12.16907768 16.31208659 -13.17381824 10.5153248 -10.6875 5.1875 C-10.130625 4.465625 -9.57375 3.74375 -9 3 C-8.3503125 2.1028125 -8.3503125 2.1028125 -7.6875 1.1875 C-5.01686918 -0.6918328 -3.18876492 -0.43767362 0 0 Z " fill="#F08007" transform="translate(145,332)"/>
<path d="M0 0 C4.62 0 9.24 0 14 0 C14 18.81 14 37.62 14 57 C9.38 57 4.76 57 0 57 C0 38.19 0 19.38 0 0 Z " fill="#022378" transform="translate(625,190)"/>
<path d="M0 0 C4.76370842 1.44875669 7.97227594 3.57367995 10.60546875 7.859375 C11.89863729 10.44160679 13.08465683 13.05964025 14.2734375 15.69140625 C17.43182863 21.90463471 20.72403318 27.65212717 25.171875 33.03515625 C26.2734375 34.69140625 26.2734375 34.69140625 26.2734375 37.69140625 C15.81588227 37.29378058 6.99395145 35.23928711 -0.76953125 27.87109375 C-6.13588146 21.8942007 -11.91415044 14.98815373 -12.08203125 6.609375 C-11.7265625 4.69140625 -11.7265625 4.69140625 -9.8515625 1.56640625 C-6.10593587 -0.68096973 -4.21235746 -0.77669714 0 0 Z " fill="#EF8109" transform="translate(215.7265625,348.30859375)"/>
<path d="M0 0 C1.03640625 -0.01740234 1.03640625 -0.01740234 2.09375 -0.03515625 C9.56683222 0.00698519 15.31086661 2.81706042 21.25 7.375 C23.82557125 10.7700712 23.7021302 14.2304732 23.25 18.375 C20.86939535 20.92691366 19.3804343 21.35814528 15.89453125 21.80859375 C7.28746927 21.81736751 0.20892702 21.54876358 -6.625 15.796875 C-9.60888897 12.73010022 -10.66607338 10.93451077 -11.3125 6.625 C-10.75 3.375 -10.75 3.375 -9.69921875 1.6953125 C-6.66888546 -0.35729803 -3.52991984 -0.05797314 0 0 Z " fill="#EF7F05" transform="translate(271.75,337.625)"/>
<path d="M0 0 C2.4420799 2.58162732 3.1875 3.77092766 3.1875 7.3125 C2.3136906 10.28345196 1.35434366 11.19395319 -1.1875 13 C-6.68430848 15.74840424 -12.87227622 16.3410421 -18.84765625 14.78125 C-21.55649091 13.7230216 -23.6943647 12.41631587 -25.875 10.5 C-26.8125 8.3125 -26.8125 8.3125 -26.1875 5.125 C-25.73375 4.196875 -25.28 3.26875 -24.8125 2.3125 C-23.8225 1.9825 -22.8325 1.6525 -21.8125 1.3125 C-21.8125 0.6525 -21.8125 -0.0075 -21.8125 -0.6875 C-15.4667742 -2.62910267 -5.85735304 -3.55164683 0 0 Z " fill="#EE810B" transform="translate(330.8125,309.6875)"/>
<path d="M0 0 C4.37758112 2.34513274 4.37758112 2.34513274 6 5 C7.14033924 10.00436645 6.76661537 13.72230772 4.125 18.125 C-0.2905905 20.7743543 -3.97798697 20.9961698 -9 20 C-12.125 18.0625 -12.125 18.0625 -14 15 C-14.93971476 10.31835797 -14.66873692 7.06997908 -12.125 3 C-8.45483917 -0.45426902 -4.88633345 -0.76009631 0 0 Z " fill="#EF7F07" transform="translate(351,271)"/>
<path d="M0 0 C7.92 0 15.84 0 24 0 C24 4.29 24 8.58 24 13 C16.08 13 8.16 13 0 13 C0 7.52111197 0.31902169 5.92976947 4 2 C6.92766194 1.24541705 9.68656928 1.38479685 12.6875 1.5625 C13.47189453 1.58119141 14.25628906 1.59988281 15.06445312 1.61914062 C20.80264369 1.80264369 20.80264369 1.80264369 22 3 C22.33 2.34 22.66 1.68 23 1 C15.41 1 7.82 1 0 1 C0 0.67 0 0.34 0 0 Z " fill="#183786" transform="translate(331,202)"/>
<path d="M0 0 C0.99 0.495 0.99 0.495 2 1 C2 19.15 2 37.3 2 56 C12.56 55.67 23.12 55.34 34 55 C34 52.03 34 49.06 34 46 C34.66 46 35.32 46 36 46 C36 49.96 36 53.92 36 58 C24.12 58 12.24 58 0 58 C0 38.86 0 19.72 0 0 Z " fill="#293D7A" transform="translate(447,189)"/>
<path d="M0 0 C0.66 0 1.32 0 2 0 C4.19810277 10.16622532 3.16537333 20.14087847 0 30 C-0.66 30.66 -1.32 31.32 -2 32 C-2 30.02 -2 28.04 -2 26 C-1.34 26 -0.68 26 0 26 C0.33 23.03 0.66 20.06 1 17 C0.34 17 -0.32 17 -1 17 C-1 16.01 -1 15.02 -1 14 C-4.11785113 14.64644661 -4.11785113 14.64644661 -5 17 C-6.32 17 -7.64 17 -9 17 C-9 17.99 -9 18.98 -9 20 C-9.9075 20.12375 -10.815 20.2475 -11.75 20.375 C-14.63501673 20.92981091 -16.55508398 21.42826827 -19 23 C-19.66 23.99 -20.32 24.98 -21 26 C-24.625 26.6875 -24.625 26.6875 -28 27 C-24.47327884 23.16403277 -21.14423037 20.77589169 -16.5 18.4375 C-9.05301025 14.67050636 -4.7117534 11.42350681 -1 4 C-0.23959428 1.73014106 -0.23959428 1.73014106 0 0 Z " fill="#D62743" transform="translate(73,218)"/>
<path d="M0 0 C0 0.33 0 0.66 0 1 C-0.86951294 1.07516846 -0.86951294 1.07516846 -1.7565918 1.15185547 C-4.40099577 1.38497534 -7.04418287 1.62987578 -9.6875 1.875 C-11.05551758 1.99294922 -11.05551758 1.99294922 -12.45117188 2.11328125 C-16.95028103 2.53865157 -20.89711592 2.94423913 -25 5 C-25 5.99 -25 6.98 -25 8 C-22.9858023 9.00709885 -21.18096274 9.47128176 -19 10 C-18.01 10.33 -17.02 10.66 -16 11 C-16 11.99 -16 12.98 -16 14 C-15.34 14.33 -14.68 14.66 -14 15 C-18.07230181 14.55975116 -21.57684728 13.45798352 -25.375 12 C-29.99670978 10.25500424 -34.08491272 9.37094998 -39 9 C-36.60469872 4.20939743 -27.56661676 2.85844397 -22.69921875 1.23046875 C-15.34367019 -0.75481523 -7.55065938 -0.16676303 0 0 Z " fill="#D41D39" transform="translate(69,75)"/>
<path d="M0 0 C1.65 0 3.3 0 5 0 C4.67 0.66 4.34 1.32 4 2 C3.01 2 2.02 2 1 2 C1 25.43 1 48.86 1 73 C6.69105258 72.37411341 6.69105258 72.37411341 10 69 C10.33 69.99 10.66 70.98 11 72 C11.66 72.33 12.32 72.66 13 73 C13 66.4 13 59.8 13 53 C13.33 53 13.66 53 14 53 C14 59.93 14 66.86 14 74 C9.38 74 4.76 74 0 74 C0 49.58 0 25.16 0 0 Z " fill="#0C266D" transform="translate(128,173)"/>
<path d="M0 0 C2.59375 1.3984375 2.59375 1.3984375 5.5 3.375 C9.53917058 6.11031037 9.53917058 6.11031037 14 8 C14 8.66 14 9.32 14 10 C5.10456358 10.19865739 -3.32910197 10.33447255 -12 8 C-12 7.67 -12 7.34 -12 7 C-8.535 6.505 -8.535 6.505 -5 6 C-4.5978125 4.7934375 -4.5978125 4.7934375 -4.1875 3.5625 C-3.795625 2.716875 -3.40375 1.87125 -3 1 C-2.01 0.67 -1.02 0.34 0 0 Z " fill="#E20F30" transform="translate(196,79)"/>
<path d="M0 0 C-1.01510981 3.38369938 -2.20344677 6.46288752 -3.875 9.5625 C-7.46156617 16.52070702 -9.58965269 24.32144243 -11 32 C-11.66 32 -12.32 32 -13 32 C-14.25390625 30.609375 -14.25390625 30.609375 -15.5625 28.75 C-15.99691406 28.14671875 -16.43132812 27.5434375 -16.87890625 26.921875 C-18.03255742 24.94418728 -18.55972779 23.23598922 -19 21 C-17.68 21.33 -16.36 21.66 -15 22 C-14.67 23.32 -14.34 24.64 -14 26 C-13.01 25.67 -12.02 25.34 -11 25 C-11.33 22.69 -11.66 20.38 -12 18 C-11.01 18 -10.02 18 -9 18 C-8.96261719 17.27554687 -8.92523438 16.55109375 -8.88671875 15.8046875 C-8.19781346 5.67372737 -8.19781346 5.67372737 -5 1 C-2 0 -2 0 0 0 Z " fill="#E49039" transform="translate(98,322)"/>
<path d="M0 0 C1.32 0.33 2.64 0.66 4 1 C3.67 1.99 3.34 2.98 3 4 C2.895795 5.49741281 2.84429626 6.99882811 2.82641602 8.49975586 C2.81292618 9.40757309 2.79943634 10.31539032 2.78553772 11.25071716 C2.77509933 12.22887894 2.76466095 13.20704071 2.75390625 14.21484375 C2.72097431 16.28320746 2.68776255 18.35156673 2.65429688 20.41992188 C2.60683969 23.68315645 2.56239343 26.94637217 2.52319336 30.2097168 C2.48350509 33.35744786 2.43195955 36.50481358 2.37890625 39.65234375 C2.3704921 40.62848129 2.36207794 41.60461884 2.35340881 42.6103363 C2.33676682 43.52130569 2.32012482 44.43227509 2.30297852 45.37084961 C2.28751732 46.56973061 2.28751732 46.56973061 2.27174377 47.79283142 C2 50 2 50 0 54 C0 36.18 0 18.36 0 0 Z " fill="#4F679D" transform="translate(500,190)"/>
<path d="M0 0 C0.33 0 0.66 0 1 0 C1.33 3.96 1.66 7.92 2 12 C20.315 12.495 20.315 12.495 39 13 C39 13.66 39 14.32 39 15 C25.8 15 12.6 15 -1 15 C-0.67 10.05 -0.34 5.1 0 0 Z " fill="#0E2368" transform="translate(317,232)"/>
<path d="M0 0 C1 3 1 3 -0.36328125 6.3203125 C-1.00267748 7.59378775 -1.65287331 8.86188505 -2.3125 10.125 C-2.63412109 10.77082031 -2.95574219 11.41664063 -3.28710938 12.08203125 C-5.72829433 16.86414717 -5.72829433 16.86414717 -8 18 C-8.12375 17.195625 -8.2475 16.39125 -8.375 15.5625 C-8.58125 14.716875 -8.7875 13.87125 -9 13 C-9.66 12.67 -10.32 12.34 -11 12 C-10.01 11.67 -9.02 11.34 -8 11 C-9.18424326 9.58422523 -9.18424326 9.58422523 -12.5625 9.9375 C-14.2640625 9.9684375 -14.2640625 9.9684375 -16 10 C-12.59663754 7.7310917 -9.06416938 6.06766374 -5.375 4.31640625 C-3.14749512 3.08175305 -1.67768598 1.89291543 0 0 Z " fill="#D82744" transform="translate(87,151)"/>
<path d="M0 0 C15.33057732 -0.91374302 31.46617636 1.4260253 45 9 C45 9.33 45 9.66 45 10 C39.04296875 10.29296875 39.04296875 10.29296875 37 10 C36.32904297 9.31550781 36.32904297 9.31550781 35.64453125 8.6171875 C29.82990804 2.89924448 16.8709568 2.22080146 9 1 C9.495 1.45375 9.99 1.9075 10.5 2.375 C12 4 12 4 12 6 C6.25 4.25 6.25 4.25 4 2 C2.68252676 1.30251417 1.35085807 0.63040043 0 0 Z " fill="#CF324E" transform="translate(109,0)"/>
<path d="M0 0 C13.2 0 26.4 0 40 0 C40 3.96 40 7.92 40 12 C33.4 12 26.8 12 20 12 C20 11.67 20 11.34 20 11 C26.27 10.67 32.54 10.34 39 10 C38.505 6.04 38.505 6.04 38 2 C26.45 2 14.9 2 3 2 C2.34 3.65 1.68 5.3 1 7 C0.67 7 0.34 7 0 7 C0 4.69 0 2.38 0 0 Z " fill="#102567" transform="translate(316,173)"/>
<path d="M0 0 C0.33 0 0.66 0 1 0 C1 1.65 1 3.3 1 5 C0.01 5.33 -0.98 5.66 -2 6 C-3.22520264 9.00847418 -3.22520264 9.00847418 -4 12 C-2.68 12.66 -1.36 13.32 0 14 C0 13.34 0 12.68 0 12 C1.32 12.66 2.64 13.32 4 14 C-1.33333333 16.66666667 -6.66666667 19.33333333 -12 22 C-10.13946044 15.09641901 -7.21878524 9.74589761 -3 4 C-2.46375 3.25363281 -1.9275 2.50726563 -1.375 1.73828125 C-0.92125 1.16464844 -0.4675 0.59101563 0 0 Z " fill="#D42441" transform="translate(12,175)"/>
<path d="M0 0 C0.33 0 0.66 0 1 0 C1.33 16.83 1.66 33.66 2 51 C5.63 51.33 9.26 51.66 13 52 C13 52.66 13 53.32 13 54 C8.71 54 4.42 54 0 54 C0 36.18 0 18.36 0 0 Z " fill="#0E2467" transform="translate(189,193)"/>
<path d="M0 0 C1.34592097 1.65651812 2.67518731 3.32655239 4 5 C4.52851563 5.66257812 5.05703125 6.32515625 5.6015625 7.0078125 C6.14554688 7.70648438 6.68953125 8.40515625 7.25 9.125 C7.77078125 9.78757812 8.2915625 10.45015625 8.828125 11.1328125 C10 13 10 13 10 16 C8.20759337 15.88610125 6.41605165 15.75852313 4.625 15.625 C3.12839844 15.52058594 3.12839844 15.52058594 1.6015625 15.4140625 C-1 15 -1 15 -3 13 C-2.34 13 -1.68 13 -1 13 C-0.34 11.68 0.32 10.36 1 9 C1.66 9 2.32 9 3 9 C2.505 8.2575 2.01 7.515 1.5 6.75 C0 4 0 4 0 0 Z " fill="#EA8817" transform="translate(232,370)"/>
<path d="M0 0 C-1.66666667 1.66666667 -3.33333333 3.33333333 -5 5 C-5.515625 5.556875 -6.03125 6.11375 -6.5625 6.6875 C-8 8 -8 8 -10 8.75 C-12.39377197 9.97916522 -12.39377197 9.97916522 -13.5 13.5625 C-13.995 14.696875 -14.49 15.83125 -15 17 C-17.09375 17.71484375 -17.09375 17.71484375 -19 18 C-18.40572612 16.39214223 -17.79916412 14.78882291 -17.1875 13.1875 C-16.85105469 12.29417969 -16.51460937 11.40085938 -16.16796875 10.48046875 C-15.02797308 8.05940772 -14.08761677 6.64927204 -12 5 C-11.34 5 -10.68 5 -10 5 C-9.67 4.01 -9.34 3.02 -9 2 C-3.69230769 -1.23076923 -3.69230769 -1.23076923 0 0 Z " fill="#1A3377" transform="translate(575,192)"/>
<path d="M0 0 C0.66 0.33 1.32 0.66 2 1 C1.67 3.64 1.34 6.28 1 9 C0.34 9 -0.32 9 -1 9 C-2.23759823 12.71279469 -2.35608897 16.31306346 -2.5625 20.1875 C-2.60568359 20.93708984 -2.64886719 21.68667969 -2.69335938 22.45898438 C-2.79922685 24.30578375 -2.9000976 26.15286834 -3 28 C-2.34 28 -1.68 28 -1 28 C-1.99 31.465 -1.99 31.465 -3 35 C-5.40150597 31.39774104 -5.34458307 28.72941014 -5.3125 24.5625 C-5.30976074 23.85254883 -5.30702148 23.14259766 -5.30419922 22.41113281 C-5.15062288 14.5557911 -3.74660513 6.97194346 0 0 Z " fill="#CA2D47" transform="translate(36,252)"/>
<path d="M0 0 C0.33 0 0.66 0 1 0 C1.50333542 2.60356241 2.00279378 5.20776651 2.5 7.8125 C2.64308594 8.55048828 2.78617188 9.28847656 2.93359375 10.04882812 C3.50926281 13.07794391 4 15.909196 4 19 C4.66 19 5.32 19 6 19 C5.67 19.99 5.34 20.98 5 22 C-0.40747098 19.85954274 -5.14310063 17.19167673 -10 14 C-8.68 13.34 -7.36 12.68 -6 12 C-5.67 12.66 -5.34 13.32 -5 14 C-4.01 14.33 -3.02 14.66 -2 15 C-2 15.66 -2 16.32 -2 17 C-1.34 17 -0.68 17 0 17 C0 11.39 0 5.78 0 0 Z " fill="#E88B30" transform="translate(158,366)"/>
<path d="M0 0 C3.08708331 3.70589056 5.73750332 7.57910265 8.25 11.6875 C8.61351562 12.26822266 8.97703125 12.84894531 9.3515625 13.44726562 C12 17.7534657 12 17.7534657 12 20 C10.35 19.67 8.7 19.34 7 19 C7 17.02 7 15.04 7 13 C5.68 13.33 4.36 13.66 3 14 C3 12.02 3 10.04 3 8 C2.34 8 1.68 8 1 8 C0.67 5.36 0.34 2.72 0 0 Z " fill="#16377F" transform="translate(393,191)"/>
<path d="M0 0 C2 1 2 1 2.81640625 3.109375 C3.06261719 3.98078125 3.30882812 4.8521875 3.5625 5.75 C3.81128906 6.61109375 4.06007812 7.4721875 4.31640625 8.359375 C4.97266439 10.89440646 5.51416676 13.42739732 6 16 C6.66 16 7.32 16 8 16 C8 17.32 8 18.64 8 20 C8.66 20 9.32 20 10 20 C10 20.99 10 21.98 10 23 C11.32 23.33 12.64 23.66 14 24 C14 25.65 14 27.3 14 29 C5.6514081 21.60553289 1.14242752 10.96730423 0 0 Z " fill="#D23D54" transform="translate(139,38)"/>
<path d="M0 0 C2.5 2 2.5 2 4 4 C3.01 3.7834375 3.01 3.7834375 2 3.5625 C-1.65599551 2.87700084 -5.30622195 2.43824485 -9 2 C-9.12375 2.639375 -9.2475 3.27875 -9.375 3.9375 C-9.58125 4.618125 -9.7875 5.29875 -10 6 C-10.99 6.495 -10.99 6.495 -12 7 C-11.88541307 8.43836751 -11.75790884 9.87570966 -11.625 11.3125 C-11.55539062 12.11300781 -11.48578125 12.91351563 -11.4140625 13.73828125 C-11.10435574 16.27224441 -11.10435574 16.27224441 -9 19 C-12.875 17.25 -12.875 17.25 -14 15 C-14.55512815 10.36786507 -14.6364242 7.01827873 -12.125 3 C-8.48093 -0.42971294 -4.86496773 -0.74032118 0 0 Z " fill="#DD8C30" transform="translate(351,271)"/>
<path d="M0 0 C0.74958984 0.01353516 1.49917969 0.02707031 2.27148438 0.04101562 C4.11879767 0.07631461 5.96574066 0.13012083 7.8125 0.1875 C7.8125 0.5175 7.8125 0.8475 7.8125 1.1875 C2.5325 1.8475 -2.7475 2.5075 -8.1875 3.1875 C-8.5175 5.8275 -8.8475 8.4675 -9.1875 11.1875 C-8.5275 11.1875 -7.8675 11.1875 -7.1875 11.1875 C-7.1875 11.8475 -7.1875 12.5075 -7.1875 13.1875 C-6.1975 13.1875 -5.2075 13.1875 -4.1875 13.1875 C-4.084375 13.826875 -3.98125 14.46625 -3.875 15.125 C-3.5346875 16.1459375 -3.5346875 16.1459375 -3.1875 17.1875 C-2.1975 17.5175 -1.2075 17.8475 -0.1875 18.1875 C-0.8475 18.5175 -1.5075 18.8475 -2.1875 19.1875 C-3.50337941 18.06645467 -4.81510353 16.94053035 -6.125 15.8125 C-6.85589844 15.18601562 -7.58679688 14.55953125 -8.33984375 13.9140625 C-11.00665464 11.42203203 -11.16654532 10.4756269 -11.4375 6.75 C-11.1875 3.1875 -11.1875 3.1875 -10.18359375 1.4765625 C-7.01021081 -0.5727846 -3.64453789 -0.1241371 0 0 Z " fill="#DE8B33" transform="translate(272.1875,337.8125)"/>
<path d="M0 0 C1.75070517 0.11470137 3.50057536 0.24219028 5.25 0.375 C6.22453125 0.44460937 7.1990625 0.51421875 8.203125 0.5859375 C10.89633189 0.98465249 12.66963279 1.63507063 15 3 C13.125 4.0625 13.125 4.0625 11 5 C10.34 4.67 9.68 4.34 9 4 C8.67 5.98 8.34 7.96 8 10 C5.5 8.75 5.5 8.75 3 7 C3 5.68 3 4.36 3 3 C2.01 2.67 1.02 2.34 0 2 C0 1.34 0 0.68 0 0 Z " fill="#DF1938" transform="translate(118,1)"/>
<path d="M0 0 C1.74396262 2.61594392 2.64376002 4.5907519 3.6875 7.5 C6.01718858 13.50581315 9.40183404 18.68360872 13 24 C11.68 24.33 10.36 24.66 9 25 C8.67 23.68 8.34 22.36 8 21 C7.34 21 6.68 21 6 21 C6 20.34 6 19.68 6 19 C5.34 19 4.68 19 4 19 C3.87882813 18.41992188 3.75765625 17.83984375 3.6328125 17.2421875 C2.86073712 13.64312844 2.06038733 10.17780715 0.875 6.6875 C0 4 0 4 0 0 Z " fill="#D52642" transform="translate(183,54)"/>
<path d="M0 0 C4.56484257 2.28242128 4.95238679 2.88096696 7 8 C1.06 8 -4.88 8 -11 8 C-11 7.01 -11 6.02 -11 5 C-6.71 5.33 -2.42 5.66 2 6 C2 4.68 2 3.36 2 2 C1.34 2 0.68 2 0 2 C0 1.34 0 0.68 0 0 Z " fill="#182E6C" transform="translate(228,239)"/>
<path d="M0 0 C8.58 0 17.16 0 26 0 C26 4.29 26 8.58 26 13 C23.68796073 10.68796073 23.72724909 10.06785625 23.5 6.9375 C23.335 5.638125 23.17 4.33875 23 3 C20.59458071 1.79729036 18.89633409 1.79683337 16.2109375 1.68359375 C15.26992188 1.64169922 14.32890625 1.59980469 13.359375 1.55664062 C12.37453125 1.51732422 11.3896875 1.47800781 10.375 1.4375 C9.38242187 1.39431641 8.38984375 1.35113281 7.3671875 1.30664062 C4.91160162 1.20038931 2.45591297 1.09835036 0 1 C0 0.67 0 0.34 0 0 Z " fill="#324684" transform="translate(331,234)"/>
<path d="M0 0 C0.66 0 1.32 0 2 0 C3.40234375 1.7578125 3.40234375 1.7578125 4.9375 4.125 C5.44152344 4.89070312 5.94554687 5.65640625 6.46484375 6.4453125 C8.1272403 9.21174341 9.55662186 12.11324372 11 15 C5.06 14.67 -0.88 14.34 -7 14 C-7 13.67 -7 13.34 -7 13 C-1.06 12.505 -1.06 12.505 5 12 C5 11.01 5 10.02 5 9 C4.34 8.67 3.68 8.34 3 8 C0 2.57692308 0 2.57692308 0 0 Z " fill="#2B3D7D" transform="translate(536,232)"/>
<path d="M0 0 C0.54527344 0.27714844 1.09054688 0.55429688 1.65234375 0.83984375 C6.51036909 3.17335678 10.6682837 4.48636188 16.0546875 4.82421875 C18 5 18 5 21 6 C19.71186658 6.83878455 18.41936744 7.67086783 17.125 8.5 C16.40570313 8.9640625 15.68640625 9.428125 14.9453125 9.90625 C13 11 13 11 11 11 C11 10.34 11 9.68 11 9 C11.99 8.67 12.98 8.34 14 8 C13.07316406 7.75765625 12.14632812 7.5153125 11.19140625 7.265625 C9.99386719 6.93046875 8.79632813 6.5953125 7.5625 6.25 C6.36753906 5.92515625 5.17257813 5.6003125 3.94140625 5.265625 C1 4 1 4 0.08984375 1.859375 C0.06019531 1.24578125 0.03054687 0.6321875 0 0 Z " fill="#CF2B43" transform="translate(108,102)"/>
<path d="M0 0 C-1.49170266 4.9723422 -3.60457417 9.41845739 -6 14 C-6.66 14 -7.32 14 -8 14 C-8.3129725 8.7837917 -7.85058429 5.43424223 -5 1 C-2 0 -2 0 0 0 Z " fill="#EB8A26" transform="translate(98,322)"/>
<path d="M0 0 C0.66 0.33 1.32 0.66 2 1 C1.67 6.28 1.34 11.56 1 17 C-0.32 16.01 -1.64 15.02 -3 14 C-3.25 11.3125 -3.25 11.3125 -3 9 C-3.66 9 -4.32 9 -5 9 C-5.33 6.69 -5.66 4.38 -6 2 C-4.25728062 4.297221 -2.60088848 6.59866729 -1 9 C-0.67 6.03 -0.34 3.06 0 0 Z " fill="#1C3884" transform="translate(414,213)"/>
<path d="M0 0 C-7.28961259 6.16813373 -17.51987651 6.39558893 -26.6875 5.8359375 C-28.46627931 5.61359009 -30.23573117 5.31756839 -32 5 C-32 4.67 -32 4.34 -32 4 C-31.39526855 3.98541748 -30.79053711 3.97083496 -30.16748047 3.95581055 C-27.40270735 3.88090812 -24.63908643 3.78438927 -21.875 3.6875 C-20.44800781 3.65366211 -20.44800781 3.65366211 -18.9921875 3.61914062 C-12.1870841 3.35922348 -6.47677595 -0.57148023 0 0 Z " fill="#CE3A52" transform="translate(64,183)"/>
<path d="M0 0 C2.31 0.66 4.62 1.32 7 2 C7 2.66 7 3.32 7 4 C-1.89543642 4.19865739 -10.32910197 4.33447255 -19 2 C-19 1.67 -19 1.34 -19 1 C-12.73 1.33 -6.46 1.66 0 2 C0 1.34 0 0.68 0 0 Z " fill="#CB3B51" transform="translate(203,85)"/>
<path d="M0 0 C5.13971967 0.70545172 8.77045344 3.6407816 12.1875 7.4375 C11.8575 8.0975 11.5275 8.7575 11.1875 9.4375 C9.8675 9.1075 8.5475 8.7775 7.1875 8.4375 C7.1875 7.1175 7.1875 5.7975 7.1875 4.4375 C5.58352723 4.26897753 3.9793131 4.10275114 2.375 3.9375 C1.48167969 3.8446875 0.58835938 3.751875 -0.33203125 3.65625 C-2.89555099 3.39357599 -2.89555099 3.39357599 -5.8125 3.4375 C-3.98781681 1.00458908 -3.0558457 0.47535378 0 0 Z " fill="#DF8E39" transform="translate(141.8125,331.5625)"/>
<path d="M0 0 C0.33 0 0.66 0 1 0 C1 3.63 1 7.26 1 11 C7.27 11 13.54 11 20 11 C20.33 11.66 20.66 12.32 21 13 C14.07 12.67 7.14 12.34 0 12 C-0.33 12.66 -0.66 13.32 -1 14 C-1.66 13.67 -2.32 13.34 -3 13 C-2.67 11.68 -2.34 10.36 -2 9 C-1.34 9 -0.68 9 0 9 C0 6.03 0 3.06 0 0 Z " fill="#06216B" transform="translate(461,224)"/>
<path d="M0 0 C1.9375 0.6875 1.9375 0.6875 4 2 C5.0066731 4.73239843 5.19824182 6.32597782 4.375 9.125 C2.54757357 11.61694514 0.807393 12.72998888 -2 14 C-4.3125 13.6875 -4.3125 13.6875 -6 13 C-5.34 13 -4.68 13 -4 13 C-4 12.34 -4 11.68 -4 11 C-3.195625 10.773125 -2.39125 10.54625 -1.5625 10.3125 C-0.716875 9.879375 0.12875 9.44625 1 9 C1.89386164 6.45224694 1.89386164 6.45224694 2 4 C1.01 3.67 0.02 3.34 -1 3 C-0.67 2.01 -0.34 1.02 0 0 Z " fill="#E08D34" transform="translate(329,310)"/>
<path d="M0 0 C-0.33 0.66 -0.66 1.32 -1 2 C-1.99 2 -2.98 2 -4 2 C-4.33 2.99 -4.66 3.98 -5 5 C-7.31 5.33 -9.62 5.66 -12 6 C-12.33 5.01 -12.66 4.02 -13 3 C-12.01 3 -11.02 3 -10 3 C-10 2.34 -10 1.68 -10 1 C-6.78548731 -0.60725635 -3.56387464 -0.05748185 0 0 Z " fill="#DD1836" transform="translate(123,109)"/>
<path d="M0 0 C5.52119851 0.40399013 8.95482206 2.40310035 13 6 C15.60801665 9.40176084 15.16034524 12.83102374 15 17 C13.80707743 14.61415486 12.63605632 12.22661969 11.5 9.8125 C10.29978656 6.9087487 10.29978656 6.9087487 8 6 C8 5.34 8 4.68 8 4 C6.8553125 4.12375 6.8553125 4.12375 5.6875 4.25 C3 4 3 4 1.1875 2 C0.5996875 1.01 0.5996875 1.01 0 0 Z " fill="#E09542" transform="translate(280,339)"/>
<path d="M0 0 C0.625 1.875 0.625 1.875 1 4 C0.34 4.66 -0.32 5.32 -1 6 C-1.99 6 -2.98 6 -4 6 C-4.33 7.32 -4.66 8.64 -5 10 C-6.32 9.67 -7.64 9.34 -9 9 C-9 8.67 -9 8.34 -9 8 C-10.65 7.67 -12.3 7.34 -14 7 C-14 6.67 -14 6.34 -14 6 C-12.73542969 5.85304687 -12.73542969 5.85304687 -11.4453125 5.703125 C-9.80175781 5.47882813 -9.80175781 5.47882813 -8.125 5.25 C-7.03445313 5.11078125 -5.94390625 4.9715625 -4.8203125 4.828125 C-1.87221871 4.29064565 -1.87221871 4.29064565 -0.6171875 1.921875 C-0.41351563 1.28765625 -0.20984375 0.6534375 0 0 Z " fill="#2E4B90" transform="translate(284,228)"/>
<path d="M0 0 C0.99 0.33 1.98 0.66 3 1 C1.64002446 7.04433574 -1.85651794 10.63494136 -6 15 C-6.33 14.01 -6.66 13.02 -7 12 C-6.34 12 -5.68 12 -5 12 C-5 11.01 -5 10.02 -5 9 C-5.66 8.67 -6.32 8.34 -7 8 C-4 7 -4 7 -1 8 C-1.020625 7.05125 -1.04125 6.1025 -1.0625 5.125 C-1 2 -1 2 0 0 Z " fill="#233A80" transform="translate(298,227)"/>
<path d="M0 0 C0.33 0 0.66 0 1 0 C1.02706445 2.89589652 1.04687029 5.79153795 1.0625 8.6875 C1.07087891 9.50412109 1.07925781 10.32074219 1.08789062 11.16210938 C1.10442051 15.24499084 1.03035098 19.01651707 0 23 C-0.33 23 -0.66 23 -1 23 C-2.6362981 14.81850951 -2.06815877 7.97718384 0 0 Z " fill="#2A4583" transform="translate(245,206)"/>
<path d="M0 0 C1.32 0 2.64 0 4 0 C4 0.66 4 1.32 4 2 C3.34 2 2.68 2 2 2 C2 2.66 2 3.32 2 4 C1.01 4.33 0.02 4.66 -1 5 C-1.20970559 9.14093698 -1.20970559 9.14093698 0 13 C-2.42716947 12.06045053 -3.71970832 11.54189724 -4.9375 9.1875 C-5.02668012 6.06619571 -3.84088776 4.45451701 -2 2 C-1.34 2 -0.68 2 0 2 C0 1.34 0 0.68 0 0 Z " fill="#E09144" transform="translate(309,309)"/>
<path d="M0 0 C0.33 0.66 0.66 1.32 1 2 C2.794375 1.9690625 2.794375 1.9690625 4.625 1.9375 C8.18004869 1.93117429 11.50555624 2.30111125 15 3 C15 3.33 15 3.66 15 4 C12.37549914 4.22119939 9.75129514 4.42746669 7.125 4.625 C6.37863281 4.68945312 5.63226563 4.75390625 4.86328125 4.8203125 C2.9129953 4.96087365 0.95530533 4.98759849 -1 5 C-1.66 4.34 -2.32 3.68 -3 3 C-2.01 2.01 -1.02 1.02 0 0 Z " fill="#DB1A38" transform="translate(15,183)"/>
<path d="M0 0 C-0.99 0.66 -1.98 1.32 -3 2 C-3 2.99 -3 3.98 -3 5 C-3.86625 4.835 -4.7325 4.67 -5.625 4.5 C-8.81225199 4.02781452 -11.78485027 3.92344882 -15 4 C-10.56616154 -0.43383846 -5.91252486 -0.20042457 0 0 Z " fill="#D52543" transform="translate(41,161)"/>
<path d="M0 0 C0.33 0 0.66 0 1 0 C1 3.3 1 6.6 1 10 C1.99 10.33 2.98 10.66 4 11 C3.01 11 2.02 11 1 11 C1 12.32 1 13.64 1 15 C1.66 15.33 2.32 15.66 3 16 C1.68 16.33 0.36 16.66 -1 17 C-1.66 15.02 -2.32 13.04 -3 11 C-2.01 10.67 -1.02 10.34 0 10 C0 6.7 0 3.4 0 0 Z " fill="#163387" transform="translate(141,198)"/>
<path d="M0 0 C8.58 0 17.16 0 26 0 C25.01 0.33 24.02 0.66 23 1 C22.67 1.66 22.34 2.32 22 3 C21.29875 2.835 20.5975 2.67 19.875 2.5 C16.84031342 1.97222842 14.07673403 1.93720951 11 2 C7.15386116 2.07849263 3.74983882 1.88231502 0 1 C0 0.67 0 0.34 0 0 Z " fill="#374C8F" transform="translate(128,172)"/>
<path d="M0 0 C7.625 0.625 7.625 0.625 11 4 C13.49018012 4.99988926 13.49018012 4.99988926 16.1875 5.6875 C17.08855469 5.93886719 17.98960938 6.19023438 18.91796875 6.44921875 C19.60503906 6.63097656 20.29210937 6.81273438 21 7 C21 7.33 21 7.66 21 8 C12.86304398 7.72876813 7.06820635 4.91083499 0 1 C0 0.67 0 0.34 0 0 Z " fill="#C92E47" transform="translate(71,108)"/>
<path d="M0 0 C0.66 0.99 1.32 1.98 2 3 C0.875 6.625 0.875 6.625 -1 10 C-3.1171875 10.7109375 -3.1171875 10.7109375 -5 11 C-4.35731563 9.35293447 -3.71076198 7.70737825 -3.0625 6.0625 C-2.70285156 5.14597656 -2.34320312 4.22945312 -1.97265625 3.28515625 C-1 1 -1 1 0 0 Z M2 1 C4 2 4 2 4 2 Z " fill="#1F3981" transform="translate(561,199)"/>
<path d="M0 0 C1.98 1.65 3.96 3.3 6 5 C5.67 5.66 5.34 6.32 5 7 C3.20759337 6.88610125 1.41605165 6.75852313 -0.375 6.625 C-1.87160156 6.52058594 -1.87160156 6.52058594 -3.3984375 6.4140625 C-6 6 -6 6 -8 4 C-5.03 4 -2.06 4 1 4 C0.67 2.68 0.34 1.36 0 0 Z " fill="#DF8B3A" transform="translate(237,379)"/>
<path d="M0 0 C2.0625 0.4375 2.0625 0.4375 4 1 C0.79843579 5.99067362 -1.31642687 8.75300597 -7 11 C-6.67 9.68 -6.34 8.36 -6 7 C-4.68 7 -3.36 7 -2 7 C-2 6.34 -2 5.68 -2 5 C-1.34 5 -0.68 5 0 5 C-0.2784375 4.0409375 -0.2784375 4.0409375 -0.5625 3.0625 C-0.706875 2.381875 -0.85125 1.70125 -1 1 C-0.67 0.67 -0.34 0.34 0 0 Z " fill="#D4314A" transform="translate(66,251)"/>
<path d="M0 0 C4.64307033 6.19076044 4.13071402 11.52025338 4 19 C3.67 19 3.34 19 3 19 C3 16.69 3 14.38 3 12 C2.34 12 1.68 12 1 12 C0.67 8.04 0.34 4.08 0 0 Z " fill="#E18E35" transform="translate(154,341)"/>
<path d="M0 0 C2.85434908 0.6083039 4.19602272 2.12594696 5.90625 4.40625 C5.33777344 4.32246094 4.76929687 4.23867188 4.18359375 4.15234375 C-0.86010545 3.48714803 -5.09669069 3.4493663 -10.09375 4.40625 C-7.10598476 0.42256302 -4.75583948 -0.21294804 0 0 Z " fill="#E38833" transform="translate(94.09375,290.59375)"/>
<path d="M0 0 C1.32 0 2.64 0 4 0 C4 0.66 4 1.32 4 2 C4.66 2 5.32 2 6 2 C6.66 3.98 7.32 5.96 8 8 C7.34 8.66 6.68 9.32 6 10 C4.02 6.7 2.04 3.4 0 0 Z " fill="#1D3680" transform="translate(390,217)"/>
<path d="M0 0 C4.29 0 8.58 0 13 0 C11.68 0.33 10.36 0.66 9 1 C9.495 1.45375 9.99 1.9075 10.5 2.375 C12 4 12 4 12 6 C6.25 4.25 6.25 4.25 4 2 C2.68 1.34 1.36 0.68 0 0 Z " fill="#DE3F57" transform="translate(109,0)"/>
<path d="M0 0 C2.31 1.65 4.62 3.3 7 5 C6.01 5.495 6.01 5.495 5 6 C4.67 6.99 4.34 7.98 4 9 C2.0625 8.3125 2.0625 8.3125 0 7 C-0.93580311 4.12060581 -1.37245106 2.74490212 0 0 Z " fill="#1E3884" transform="translate(262,229)"/>
<path d="M0 0 C0.7940625 0.07863281 1.588125 0.15726562 2.40625 0.23828125 C4.5 0.6875 4.5 0.6875 6.5 2.6875 C5.51 2.460625 4.52 2.23375 3.5 2 C-1.11009705 1.3023575 -4.29933553 2.8451033 -8.5 4.6875 C-6.4048172 0.04816665 -5.00563409 -0.54444397 0 0 Z " fill="#DE872F" transform="translate(213.5,348.3125)"/>
<path d="M0 0 C1.65 0 3.3 0 5 0 C5.33 0.66 5.66 1.32 6 2 C4.75 4.625 4.75 4.625 3 7 C2.01 7 1.02 7 0 7 C0 4.69 0 2.38 0 0 Z " fill="#E01935" transform="translate(33,273)"/>
<path d="M0 0 C0.81243525 3.55924014 1.13524922 6.85127695 1.125 10.5 C1.12757813 11.4178125 1.13015625 12.335625 1.1328125 13.28125 C1.00244035 15.95004454 0.59378606 18.39865153 0 21 C-0.33 21 -0.66 21 -1 21 C-1 15.39 -1 9.78 -1 4 C-1.66 4 -2.32 4 -3 4 C-3 3.01 -3 2.02 -3 1 C-1 0 -1 0 0 0 Z " fill="#243A76" transform="translate(302,207)"/>
<path d="M0 0 C0.66 0 1.32 0 2 0 C2 1.32 2 2.64 2 4 C2.66 4 3.32 4 4 4 C4 4.99 4 5.98 4 7 C5.32 7.33 6.64 7.66 8 8 C8 9.65 8 11.3 8 13 C4.72653393 9.90347804 2.02490044 7.04980088 0 3 C0 2.01 0 1.02 0 0 Z " fill="#D02743" transform="translate(145,54)"/>
<path d="M0 0 C3.01598607 1.50799304 3.13739043 3.67733534 4.1875 6.8125 C4.55230469 7.87082031 4.91710937 8.92914063 5.29296875 10.01953125 C5.98036862 12.91724451 6.03931179 14.26601422 5 17 C2.01170674 11.43090802 0 6.37354033 0 0 Z " fill="#D2324D" transform="translate(177,37)"/>
<path d="M0 0 C0.33 0 0.66 0 1 0 C1.33 6.27 1.66 12.54 2 19 C1.01 18.67 0.02 18.34 -1 18 C-0.505 9.09 -0.505 9.09 0 0 Z " fill="#E77E10" transform="translate(157,360)"/>
<path d="M0 0 C1.23925303 3.48738512 0.7983396 5.24703368 -0.75 8.5625 C-1.09546875 9.32691406 -1.4409375 10.09132813 -1.796875 10.87890625 C-2.98522483 12.97395157 -4.21770325 14.39695723 -6 16 C-3.10933941 4.29384966 -3.10933941 4.29384966 0 0 Z " fill="#E2913E" transform="translate(83,295)"/>
<path d="M0 0 C0 0.66 0 1.32 0 2 C-3.86723631 3.26582219 -7.73151262 3.1118765 -11.75 3.0625 C-12.44738281 3.05798828 -13.14476562 3.05347656 -13.86328125 3.04882812 C-15.57555803 3.0371002 -17.28779033 3.01916653 -19 3 C-19 2.67 -19 2.34 -19 2 C-16.77149723 1.66225668 -14.54216533 1.3299813 -12.3125 1 C-10.45044922 0.7215625 -10.45044922 0.7215625 -8.55078125 0.4375 C-5.64113629 0.07899589 -2.92299978 -0.08942256 0 0 Z " fill="#354B84" transform="translate(283,245)"/>
<path d="M0 0 C10.50909091 4.01818182 10.50909091 4.01818182 12 7 C7.24518354 6.42365861 4.02951788 4.44931479 0 2 C0 1.34 0 0.68 0 0 Z " fill="#293F7F" transform="translate(252,240)"/>
<path d="M0 0 C1.125 3.75 1.125 3.75 0 6 C-2.95409701 4.62845496 -5.44008376 3.01136276 -8 1 C-5.29120665 -0.35439668 -2.99066732 -0.06501451 0 0 Z " fill="#233C85" transform="translate(285,201)"/>
<path d="M0 0 C0.33 0.99 0.66 1.98 1 3 C2.65 3 4.3 3 6 3 C3.03368051 5.47193291 0.48763093 7.25618453 -3 9 C-2.01 6.03 -1.02 3.06 0 0 Z " fill="#D14562" transform="translate(3,188)"/>
<path d="M0 0 C0.99 0.33 1.98 0.66 3 1 C1.40233897 1.86627399 -0.20339944 2.71766465 -1.8125 3.5625 C-2.70582031 4.03816406 -3.59914063 4.51382812 -4.51953125 5.00390625 C-7 6 -7 6 -10 5 C-9.67 4.01 -9.34 3.02 -9 2 C-8.2575 2.04125 -7.515 2.0825 -6.75 2.125 C-4.01480713 2.18720445 -4.01480713 2.18720445 -1.875 0.9375 C-1.25625 0.628125 -0.6375 0.31875 0 0 Z " fill="#D7354F" transform="translate(56,262)"/>
<path d="M0 0 C0.66 0.33 1.32 0.66 2 1 C1.67 3.64 1.34 6.28 1 9 C0.34 9 -0.32 9 -1 9 C-1.33 9.99 -1.66 10.98 -2 12 C-2.66 12 -3.32 12 -4 12 C-3.52309796 10.37433394 -3.04340334 8.74948689 -2.5625 7.125 C-2.29566406 6.22007812 -2.02882812 5.31515625 -1.75390625 4.3828125 C-1 2 -1 2 0 0 Z " fill="#D7354E" transform="translate(36,252)"/>
<path d="M0 0 C2.875 0.6875 2.875 0.6875 6 2 C7.64530416 4.91667555 8 6.64720982 8 10 C4.82537057 7.59757773 2.14248259 5.38286724 0 2 C0 1.34 0 0.68 0 0 Z " fill="#D53458" transform="translate(62,98)"/>
<path d="M0 0 C4.94151304 2.40016348 7.04331244 5.52273027 10 10 C7.5625 9.25 7.5625 9.25 5 8 C4.1875 5.875 4.1875 5.875 4 4 C2.68 3.67 1.36 3.34 0 3 C0 2.01 0 1.02 0 0 Z " fill="#D6243F" transform="translate(161,15)"/>
<path d="M0 0 C2.6465335 2.6465335 3.59941997 5.56221264 5 9 C4.01 9 3.02 9 2 9 C-2 3.74285714 -2 3.74285714 -2 1 C-1.34 0.67 -0.68 0.34 0 0 Z " fill="#E88C24" transform="translate(211,365)"/>
<path d="M0 0 C1.65 0 3.3 0 5 0 C4.42415568 2.38564077 3.77772405 4.66682784 3 7 C2.01 6.67 1.02 6.34 0 6 C0 4.02 0 2.04 0 0 Z " fill="#F57E03" transform="translate(307,314)"/>
<path d="M0 0 C2.4375 0.75 2.4375 0.75 5 2 C5.8125 4.125 5.8125 4.125 6 6 C4.68 6.33 3.36 6.66 2 7 C1.67 5.68 1.34 4.36 1 3 C0.34 3 -0.32 3 -1 3 C-0.67 2.01 -0.34 1.02 0 0 Z " fill="#1C377F" transform="translate(290,193)"/>
<path d="M0 0 C9.59453303 1.74259681 9.59453303 1.74259681 13 5 C5.5027933 5.36871508 5.5027933 5.36871508 3.125 3.625 C2.75375 3.08875 2.3825 2.5525 2 2 C1.34 1.34 0.68 0.68 0 0 Z " fill="#D3223E" transform="translate(141,5)"/>
<path d="M0 0 C2.64 0.33 5.28 0.66 8 1 C3.25 4.875 3.25 4.875 1 6 C0.67 4.02 0.34 2.04 0 0 Z " fill="#D72942" transform="translate(38,268)"/>
<path d="M0 0 C-1.24993996 3.74981988 -2.7230706 4.86618551 -6 7 C-8.16796875 6.609375 -8.16796875 6.609375 -10 6 C-8.71283353 4.99421411 -7.42011342 3.99553202 -6.125 3 C-5.40570312 2.443125 -4.68640625 1.88625 -3.9453125 1.3125 C-2 0 -2 0 0 0 Z " fill="#D52B44" transform="translate(26,165)"/>
<path d="M0 0 C0.66 0.33 1.32 0.66 2 1 C2.05395478 2.62463842 2.09277195 4.24978541 2.125 5.875 C2.14820313 6.77992188 2.17140625 7.68484375 2.1953125 8.6171875 C2 11 2 11 0 13 C-1.0161692 8.37078475 -0.83796731 4.65537393 0 0 Z " fill="#E48C2E" transform="translate(355,275)"/>
<path d="M0 0 C0.66 0.66 1.32 1.32 2 2 C1.9765625 4.1640625 1.9765625 4.1640625 1.625 6.625 C1.51414062 7.44226563 1.40328125 8.25953125 1.2890625 9.1015625 C1.19367188 9.72804687 1.09828125 10.35453125 1 11 C0.01 11.33 -0.98 11.66 -2 12 C-1.34 8.04 -0.68 4.08 0 0 Z " fill="#26407F" transform="translate(287,215)"/>
<path d="M0 0 C1 1 1 1 1.09765625 2.84765625 C1.06510417 4.8984375 1.03255208 6.94921875 1 9 C0.67 9 0.34 9 0 9 C-0.37125 7.6078125 -0.37125 7.6078125 -0.75 6.1875 C-2.06454245 2.83541675 -2.97963384 1.8122197 -6 0 C-3.49749232 -1.25125384 -2.59701335 -0.83774624 0 0 Z " fill="#2E4283" transform="translate(216,201)"/>
<path d="M0 0 C0.33 0.66 0.66 1.32 1 2 C0.05016642 3.50539661 -0.91011891 5.00420347 -1.875 6.5 C-2.40867188 7.3353125 -2.94234375 8.170625 -3.4921875 9.03125 C-3.98976562 9.6809375 -4.48734375 10.330625 -5 11 C-5.66 11 -6.32 11 -7 11 C-5.5140084 6.40693504 -3.14985318 3.56430755 0 0 Z " fill="#41538B" transform="translate(253,195)"/>
<path d="M0 0 C3.48331435 3.01887244 4.79157144 5.56909529 6 10 C5.01 10.495 5.01 10.495 4 11 C4 9.68 4 8.36 4 7 C3.01 7 2.02 7 1 7 C0.67 4.69 0.34 2.38 0 0 Z " fill="#2D4082" transform="translate(169,179)"/>
<path d="M0 0 C1.9375 0.3125 1.9375 0.3125 4 1 C4.33 1.99 4.66 2.98 5 4 C4.01 4.66 3.02 5.32 2 6 C2 5.01 2 4.02 2 3 C0.35 3.33 -1.3 3.66 -3 4 C-2.01 2.68 -1.02 1.36 0 0 Z " fill="#1A3B89" transform="translate(260,201)"/>
<path d="M0 0 C4.8 2.46153846 4.8 2.46153846 5.8125 5.1875 C5.874375 5.785625 5.93625 6.38375 6 7 C4.35 7 2.7 7 1 7 C0.67 4.69 0.34 2.38 0 0 Z " fill="#D91F3E" transform="translate(198,81)"/>
<path d="M0 0 C2 3 2 3 2 6 C2.66 6 3.32 6 4 6 C3.67 6.99 3.34 7.98 3 9 C0.525 8.01 0.525 8.01 -2 7 C-1.34 4.69 -0.68 2.38 0 0 Z " fill="#DD9448" transform="translate(160,379)"/>
<path d="M0 0 C-1.375 1.5 -1.375 1.5 -3 3 C-3.66 3 -4.32 3 -5 3 C-4.67 3.99 -4.34 4.98 -4 6 C-4.99 6 -5.98 6 -7 6 C-7.33 4.35 -7.66 2.7 -8 1 C-5.07175348 0.02391783 -3.04386724 -0.08226668 0 0 Z " fill="#163177" transform="translate(536,219)"/>
<path d="M0 0 C-1.28813342 0.83878455 -2.58063256 1.67086783 -3.875 2.5 C-4.59429687 2.9640625 -5.31359375 3.428125 -6.0546875 3.90625 C-8 5 -8 5 -10 5 C-10 4.34 -10 3.68 -10 3 C-9.01 2.67 -8.02 2.34 -7 2 C-6.67 1.34 -6.34 0.68 -6 0 C-3 -1 -3 -1 0 0 Z " fill="#C6445B" transform="translate(129,108)"/>
<path d="M0 0 C0 0.99 0 1.98 0 3 C0.66 3.33 1.32 3.66 2 4 C-3.75 3.125 -3.75 3.125 -6 2 C-6 1.34 -6 0.68 -6 0 C-3.50907189 -1.24546405 -2.58919267 -0.7767578 0 0 Z " fill="#DA2643" transform="translate(53,86)"/>
<path d="M0 0 C2.88575819 0.39803561 3.82189513 0.79009069 5.75 3.0625 C6.1625 3.701875 6.575 4.34125 7 5 C5.35 5.33 3.7 5.66 2 6 C1.34 4.02 0.68 2.04 0 0 Z " fill="#D93750" transform="translate(154,10)"/>
<path d="M0 0 C0.66 0 1.32 0 2 0 C2.6875 2.3125 2.6875 2.3125 3 5 C1.6875 6.8125 1.6875 6.8125 0 8 C-0.66 8 -1.32 8 -2 8 C-1.34 5.36 -0.68 2.72 0 0 Z " fill="#CF5E74" transform="translate(73,218)"/>
<path d="M0 0 C0.433125 0.9590625 0.433125 0.9590625 0.875 1.9375 C1.82823451 4.15206079 1.82823451 4.15206079 4 5 C1.69 5.33 -0.62 5.66 -3 6 C-1.125 1.125 -1.125 1.125 0 0 Z " fill="#112F7A" transform="translate(256,193)"/>
<path d="M0 0 C1.39195915 4.17587745 -0.17676781 6.13474776 -2 10 C-2.33 9.01 -2.66 8.02 -3 7 C-2.67 6.34 -2.34 5.68 -2 5 C-2.66 4.67 -3.32 4.34 -4 4 C-2.68 2.68 -1.36 1.36 0 0 Z " fill="#C4485F" transform="translate(87,151)"/>
<path d="M0 0 C3.36720387 1.39332574 4.9859524 2.9789286 7 6 C4.03 5.505 4.03 5.505 1 5 C0.67 3.35 0.34 1.7 0 0 Z " fill="#D2304D" transform="translate(88,85)"/>
<path d="M0 0 C6.875 3.75 6.875 3.75 8 6 C3.50347222 6.36458333 3.50347222 6.36458333 1.1875 4.6875 C0 3 0 3 0 0 Z " fill="#CF2844" transform="translate(80,79)"/>
<path d="M0 0 C2.5 1.375 2.5 1.375 5 3 C5 3.66 5 4.32 5 5 C3.35 5.33 1.7 5.66 0 6 C-1.24546405 3.50907189 -0.7767578 2.58919267 0 0 Z " fill="#E78C2C" transform="translate(220,351)"/>
<path d="M0 0 C0.763125 0.0825 1.52625 0.165 2.3125 0.25 C1.9825 1.24 1.6525 2.23 1.3125 3.25 C-0.9975 3.58 -3.3075 3.91 -5.6875 4.25 C-3.34903846 0.31153846 -3.34903846 0.31153846 0 0 Z " fill="#D02346" transform="translate(50.6875,240.75)"/>
<path d="M0 0 C2.99324263 1.0975223 3.84610901 1.67682892 5.25 4.625 C5.4975 5.40875 5.745 6.1925 6 7 C5.01 7.495 5.01 7.495 4 8 C0 2.25 0 2.25 0 0 Z " fill="#233980" transform="translate(208,232)"/>
<path d="M0 0 C0.33 1.32 0.66 2.64 1 4 C-0.98 4.99 -0.98 4.99 -3 6 C-3 6.66 -3 7.32 -3 8 C-3.66 8 -4.32 8 -5 8 C-5 5 -5 5 -3.625 3.3125 C-2 2 -2 2 0 2 C0 1.34 0 0.68 0 0 Z " fill="#162E79" transform="translate(217,208)"/>
<path d="M0 0 C0.33 0.99 0.66 1.98 1 3 C0.01 3.33 -0.98 3.66 -2 4 C-3.20882096 6.00016466 -3.20882096 6.00016466 -4 8 C-4 5.69 -4 3.38 -4 1 C-2 0 -2 0 0 0 Z " fill="#203980" transform="translate(576,202)"/>
<path d="M0 0 C-0.75 5.75 -0.75 5.75 -3 8 C-3.33 5.69 -3.66 3.38 -4 1 C-2 0 -2 0 0 0 Z " fill="#0A2170" transform="translate(262,204)"/>
<path d="M0 0 C1.67542976 0.28604898 3.34385343 0.61781233 5 1 C3.68 2.65 2.36 4.3 1 6 C0.34 4.35 -0.32 2.7 -1 1 C-0.67 0.67 -0.34 0.34 0 0 Z " fill="#D72A47" transform="translate(69,174)"/>
<path d="M0 0 C0 0.66 0 1.32 0 2 C-3.22791555 4.1519437 -4.28400809 4.20086443 -8 4 C-8 3.34 -8 2.68 -8 2 C-2.25 0 -2.25 0 0 0 Z " fill="#D32A46" transform="translate(46,77)"/>
<path d="M0 0 C1.32 0 2.64 0 4 0 C4 0.66 4 1.32 4 2 C3.34 2 2.68 2 2 2 C2 2.66 2 3.32 2 4 C0.35 4 -1.3 4 -3 4 C-2.67 3.34 -2.34 2.68 -2 2 C-1.34 2 -0.68 2 0 2 C0 1.34 0 0.68 0 0 Z " fill="#E69037" transform="translate(309,309)"/>
<path d="M0 0 C0.99 0.33 1.98 0.66 3 1 C1.25 6.75 1.25 6.75 -1 9 C-1.125 2.25 -1.125 2.25 0 0 Z " fill="#2C4183" transform="translate(298,227)"/>
<path d="M0 0 C0 3 0 3 -1.5 4.6875 C-1.995 5.120625 -2.49 5.55375 -3 6 C-3.99 5.67 -4.98 5.34 -6 5 C-3.375 1.125 -3.375 1.125 0 0 Z " fill="#DC3151" transform="translate(73,225)"/>
<path d="M0 0 C0.66 0.33 1.32 0.66 2 1 C1.67 2.32 1.34 3.64 1 5 C-0.32 5.33 -1.64 5.66 -3 6 C-2 4 -1 2 0 0 Z " fill="#22417B" transform="translate(527,209)"/>
<path d="M0 0 C2.0625 2.3125 2.0625 2.3125 4 5 C3.67 5.99 3.34 6.98 3 8 C2.34 8 1.68 8 1 8 C0.67 5.36 0.34 2.72 0 0 Z " fill="#263B83" transform="translate(393,191)"/>
<path d="M0 0 C2.31 0.33 4.62 0.66 7 1 C4.66785852 2.20628008 2.50357861 3.1654738 0 4 C0 2.68 0 1.36 0 0 Z " fill="#153378" transform="translate(592,189)"/>
<path d="M0 0 C0.33 0 0.66 0 1 0 C1 1.65 1 3.3 1 5 C0.01 5.33 -0.98 5.66 -2 6 C-2.33 6.66 -2.66 7.32 -3 8 C-3.66 7.67 -4.32 7.34 -5 7 C-4.19152271 5.83054208 -3.37810888 4.66449539 -2.5625 3.5 C-2.11003906 2.8503125 -1.65757813 2.200625 -1.19140625 1.53125 C-0.79824219 1.0259375 -0.40507812 0.520625 0 0 Z " fill="#DE5A71" transform="translate(12,175)"/>
<path d="M0 0 C2.64 0.33 5.28 0.66 8 1 C8.33 1.99 8.66 2.98 9 4 C3.46153846 3.38461538 3.46153846 3.38461538 1.125 1.4375 C0.75375 0.963125 0.3825 0.48875 0 0 Z " fill="#D74156" transform="translate(71,108)"/>
<path d="M0 0 C1.32 1.65 2.64 3.3 4 5 C3.67 5.66 3.34 6.32 3 7 C1.35 5.35 -0.3 3.7 -2 2 C-1.34 1.34 -0.68 0.68 0 0 Z " fill="#D22442" transform="translate(157,68)"/>
<path d="" fill="#FFFFFF" transform="translate(0,0)"/>
</svg>
